  <svg xmlns="http://www.w3.org/2000/svg" width="20.326" height="17.785"
                                viewBox="0 0 20.326 17.785">
                                <g id="Path_561" data-name="Path 561" transform="translate(-8.29 -10.21)" fill="none">
                                    <path
                                        d="M22.694,10.21a6.036,6.036,0,0,0-4.241,1.716,6.036,6.036,0,0,0-4.241-1.716A5.817,5.817,0,0,0,8.29,15.9c0,7.27,9.578,11.863,9.985,12.056a.488.488,0,0,0,.178.04.411.411,0,0,0,.178-.04c.407-.193,9.985-4.785,9.985-12.056A5.814,5.814,0,0,0,22.694,10.21Z"
                                        stroke="none" />
                                    <path
                                        d="M 14.21167373657227 12.21000289916992 C 12.04925537109375 12.21000289916992 10.28999519348145 13.86473274230957 10.28999519348145 15.89866256713867 C 10.28999519348145 17.18160247802734 10.69435501098633 18.48316192626953 11.49184417724609 19.76717185974121 C 12.18529510498047 20.8836727142334 13.17246437072754 21.99065208435059 14.42593383789062 23.05738258361816 C 15.99174690246582 24.38990783691406 17.57354927062988 25.32480239868164 18.45281028747559 25.79940032958984 C 19.33206939697266 25.32480239868164 20.91387176513672 24.38990783691406 22.47968482971191 23.05738258361816 C 23.733154296875 21.99065208435059 24.7203254699707 20.8836727142334 25.41377449035645 19.76717185974121 C 26.21126556396484 18.48316192626953 26.61562347412109 17.18160247802734 26.61562347412109 15.89568328857422 C 26.61702346801758 14.95966339111328 26.23983383178711 14.06565284729004 25.55354309082031 13.37834358215332 C 24.80125427246094 12.62492370605469 23.78570556640625 12.21000289916992 22.69395446777344 12.21000289916992 C 21.61196517944336 12.21000289916992 20.60396385192871 12.61556243896484 19.85564422607422 13.35198211669922 L 18.45282363891602 14.73250198364258 L 17.04998397827148 13.35199356079102 C 16.30165481567383 12.61557197570801 15.29365348815918 12.21000289916992 14.21167373657227 12.21000289916992 M 14.21167373657227 10.21000289916992 C 15.81731414794922 10.21000289916992 17.33869361877441 10.83009338378906 18.45281410217285 11.92648315429688 C 19.56692504882812 10.83009338378906 21.08830451965332 10.21000289916992 22.69395446777344 10.21000289916992 C 25.95672416687012 10.21000289916992 28.62030410766602 12.76226234436035 28.61562347412109 15.89866256713867 C 28.61562347412109 23.16900253295898 19.03795433044434 27.76126289367676 18.63069534301758 27.95448303222656 C 18.57452392578125 27.98144149780273 18.51366424560547 27.99492263793945 18.45281410217285 27.99492263793945 C 18.39195442199707 27.99492263793945 18.33110427856445 27.97695159912109 18.27492523193359 27.95448303222656 C 17.8676643371582 27.76126289367676 8.289995193481445 23.16900253295898 8.289995193481445 15.89866256713867 C 8.289995193481445 12.76226234436035 10.94890403747559 10.21000289916992 14.21167373657227 10.21000289916992 Z"
                                        stroke="none" fill="#707070" />
                                </g>
                            </svg>