<svg xmlns="http://www.w3.org/2000/svg" xmlns:xlink="http://www.w3.org/1999/xlink" width="24.164" height="24.167" viewBox="0 0 24.164 24.167">
  <defs>
    <clipPath id="clip-path">
      <path id="_Color" data-name="↳ 🎨 Color" d="M13.2,24.168c-1.558,0-3.384-.054-6.107-.177a8.874,8.874,0,0,1-2.919-.558A6.088,6.088,0,0,1,.658,19.926C-.334,17.379.094,7.227.1,7.125A7.051,7.051,0,0,1,2.044,2.089,7.088,7.088,0,0,1,7.093.148c2.166-.1,4-.148,5.6-.148,6.742,0,8.131.866,9.357,2.089,1.884,1.882,2.429,4.3,1.945,14.925a8.818,8.818,0,0,1-.557,2.912c-1.254,3.21-3.743,4.241-10.241,4.241h0ZM10.817,2.14c-5.348,0-6.374.612-7.241,1.475A5.213,5.213,0,0,0,2.263,7.222c-.073,1.6-.294,10.11.414,11.921a3.954,3.954,0,0,0,2.281,2.275,6.683,6.683,0,0,0,2.233.412c2.667.122,4.629.18,6.175.18,5.382,0,7.188-.643,8.056-2.867a6.634,6.634,0,0,0,.414-2.228c.477-10.333-.061-12.052-1.313-13.3a5.243,5.243,0,0,0-3.615-1.309C14.434,2.194,12.442,2.14,10.817,2.14Zm1.233,16.088a6.158,6.158,0,1,1,6.174-6.159A6.173,6.173,0,0,1,12.049,18.228Zm0-10.156a4,4,0,1,0,4.008,4A4.007,4.007,0,0,0,12.049,8.071Zm6.419-.966a1.439,1.439,0,1,1,1.444-1.439A1.443,1.443,0,0,1,18.468,7.105Z" transform="translate(0.417 0.423)" fill="#fff"/>
    </clipPath>
  </defs>
  <g id="Icon_Social_Instagram" data-name="Icon/Social/Instagram" transform="translate(-0.419 -0.423)">
    <path id="_Color-2" data-name="↳ 🎨 Color" d="M13.2,24.168c-1.558,0-3.384-.054-6.107-.177a8.874,8.874,0,0,1-2.919-.558A6.088,6.088,0,0,1,.658,19.926C-.334,17.379.094,7.227.1,7.125A7.051,7.051,0,0,1,2.044,2.089,7.088,7.088,0,0,1,7.093.148c2.166-.1,4-.148,5.6-.148,6.742,0,8.131.866,9.357,2.089,1.884,1.882,2.429,4.3,1.945,14.925a8.818,8.818,0,0,1-.557,2.912c-1.254,3.21-3.743,4.241-10.241,4.241h0ZM10.817,2.14c-5.348,0-6.374.612-7.241,1.475A5.213,5.213,0,0,0,2.263,7.222c-.073,1.6-.294,10.11.414,11.921a3.954,3.954,0,0,0,2.281,2.275,6.683,6.683,0,0,0,2.233.412c2.667.122,4.629.18,6.175.18,5.382,0,7.188-.643,8.056-2.867a6.634,6.634,0,0,0,.414-2.228c.477-10.333-.061-12.052-1.313-13.3a5.243,5.243,0,0,0-3.615-1.309C14.434,2.194,12.442,2.14,10.817,2.14Zm1.233,16.088a6.158,6.158,0,1,1,6.174-6.159A6.173,6.173,0,0,1,12.049,18.228Zm0-10.156a4,4,0,1,0,4.008,4A4.007,4.007,0,0,0,12.049,8.071Zm6.419-.966a1.439,1.439,0,1,1,1.444-1.439A1.443,1.443,0,0,1,18.468,7.105Z" transform="translate(0.417 0.423)" fill="#fff"/>
  </g>
</svg>
