<svg id="Group_196" data-name="Group 196" xmlns="http://www.w3.org/2000/svg" width="16" height="16" viewBox="0 0 16 16">
  <path id="Path_566" data-name="Path 566" d="M31.706,45.693a.982.982,0,0,1-.694-1.676L45.049,29.98a.982.982,0,1,1,1.388,1.388L32.4,45.405A.978.978,0,0,1,31.706,45.693Z" transform="translate(-30.725 -29.693)" fill="#c8c7cc"/>
  <path id="Path_567" data-name="Path 567" d="M45.743,45.693a.98.98,0,0,1-.694-.287L31.012,31.369A.982.982,0,0,1,32.4,29.98L46.437,44.017a.982.982,0,0,1-.694,1.676Z" transform="translate(-30.725 -29.693)" fill="#c8c7cc"/>
</svg>
