<svg xmlns="http://www.w3.org/2000/svg" width="15.22" height="16" viewBox="0 0 15.22 16">
  <g id="noun_call_2442988" transform="translate(-2.441 0.006)">
    <path id="Path_570" data-name="Path 570" d="M13.344,15.96a6.9,6.9,0,0,1-3.03-1.221,16.933,16.933,0,0,1-2.849-2.5,41.979,41.979,0,0,1-3.04-3.46A10.616,10.616,0,0,1,2.691,5.551,5.09,5.09,0,0,1,2.5,3.194,4.159,4.159,0,0,1,3.844.844,5.729,5.729,0,0,1,4.758.177,1.176,1.176,0,0,1,6.05.2,4.639,4.639,0,0,1,8.026,2.567a.857.857,0,0,1-.094.867c-.229.309-.467.61-.7.918-.2.274-.414.542-.6.83a.765.765,0,0,0,.008.9c.456.64.9,1.3,1.393,1.909a24.276,24.276,0,0,0,2.969,3.076c.24.206.5.389.753.576a.721.721,0,0,0,.776.07,8.725,8.725,0,0,0,.8-.448c.358-.229.71-.464,1.062-.689a.934.934,0,0,1,.976-.019,4.751,4.751,0,0,1,2.112,2.08,1.28,1.28,0,0,1-.115,1.451,4.391,4.391,0,0,1-3.519,1.91,5,5,0,0,1-.51-.034Z" transform="translate(0 0)" fill="#fe7700"/>
  </g>
</svg>
